<svg xmlns="http://www.w3.org/2000/svg" width="1024" height="1024" viewBox="0 0 1024 1024">
<g>
<path d="M 307.00 825.11 C298.02,822.21 292.89,819.08 286.51,812.61 C272.05,797.95 268.50,780.78 275.47,759.23 C283.27,735.14 286.73,726.87 290.68,722.75 C304.50,708.39 383.80,649.37 549.00,530.50 C557.53,524.37 589.92,500.98 621.00,478.52 C652.08,456.07 683.51,433.39 690.86,428.13 C698.20,422.87 703.82,418.44 703.34,418.28 C702.47,417.99 659.79,425.59 623.75,432.44 C600.95,436.78 577.22,441.27 541.50,448.01 C455.89,464.15 363.17,483.11 356.60,485.83 C354.77,486.58 363.59,492.38 412.28,522.44 C420.69,527.63 422.00,529.19 422.00,534.00 C422.00,538.22 420.84,540.15 412.69,549.50 C404.12,559.33 313.87,652.21 313.38,651.71 C313.18,651.51 317.08,639.75 322.04,625.56 C327.16,610.92 331.31,597.34 331.64,594.12 C332.37,587.14 330.06,577.32 326.20,571.03 C322.17,564.47 304.71,549.84 256.00,512.22 C232.07,493.74 209.12,476.01 205.00,472.81 C200.88,469.62 193.25,463.74 188.05,459.74 C170.72,446.41 165.68,437.61 165.57,420.50 C165.52,413.33 166.00,409.09 167.28,405.50 C171.38,393.95 182.05,383.08 193.55,378.74 L 199.50 376.50 L 289.00 376.00 L 378.50 375.50 L 384.12 372.86 C387.21,371.42 391.51,368.63 393.68,366.67 C400.73,360.30 397.36,368.79 447.01,232.32 C460.34,195.66 468.91,173.54 470.86,170.70 C480.65,156.48 494.63,149.00 511.42,149.00 C525.71,149.00 536.47,153.57 546.19,163.76 C549.25,166.97 552.75,171.55 553.97,173.94 C555.19,176.33 561.58,193.19 568.17,211.39 C574.76,229.60 583.00,252.38 586.48,262.00 C610.58,328.63 620.42,355.02 622.49,358.56 C625.65,363.96 632.97,370.59 638.78,373.30 L 643.50 375.50 L 734.00 376.00 C817.72,376.47 824.83,376.64 828.97,378.29 C844.86,384.61 855.61,397.91 857.85,414.00 C859.48,425.71 856.11,439.77 849.63,448.26 C847.87,450.57 838.72,458.32 829.31,465.48 C787.85,497.01 722.57,547.75 712.53,556.26 C706.49,561.38 700.09,567.48 698.30,569.83 C694.17,575.25 692.00,582.55 692.00,591.07 C692.00,597.15 693.86,603.28 711.90,656.64 C722.85,689.01 735.71,726.75 740.49,740.50 C748.25,762.83 749.23,766.47 749.72,774.62 C750.66,790.43 746.69,801.30 736.01,812.11 C728.97,819.24 722.34,823.15 713.31,825.51 C702.21,828.40 687.65,826.92 677.82,821.91 C675.56,820.75 668.48,815.89 662.10,811.09 C655.72,806.30 624.88,783.10 593.58,759.55 C557.53,732.44 534.24,715.59 530.08,713.62 C523.95,710.72 522.74,710.50 512.50,710.50 C495.50,710.50 501.68,706.68 417.00,769.50 C343.56,823.97 345.34,822.76 334.95,825.53 C327.44,827.52 313.84,827.32 307.00,825.11 Z" fill="currentColor"/>
</g>
</svg>
